<svg width="150" height="50" viewBox="0 0 150 50" xmlns="http://www.w3.org/2000/svg">
  <style>
    .swan-font { font-family: 'Playfair Display', serif; font-size: 24px; fill: #2A4D3A; }
    .botanicals-font { font-family: 'Lora', serif; font-size: 12px; fill: #2A4D3A; }
  </style>
  <path d="M25.5,15c-3.3,0-6,2.7-6,6c0,2.2,1.2,4.2,3,5.2V35c0,1.1-0.9,2-2,2s-2-0.9-2-2v-5h-2v5c0,2.2,1.8,4,4,4s4-1.8,4-4V26.2c1.8-1,3-2.9,3-5.2C31.5,17.7,28.8,15,25.5,15z M25.5,25c-2.2,0-4-1.8-4-4s1.8-4,4-4s4,1.8,4,4S27.7,25,25.5,25z M10,35c-1.1,0-2-0.9-2-2v-8c-2.8-1.5-4-4.5-3.5-7.5C5,14.2,7.2,12,10,12c3.3,0,6,2.7,6,6c0,1.9-0.9,3.6-2.2,4.7l2.2,9.3H10z M10,14c-1.7,0-3,1.3-3,3s1.3,3,3,3s3-1.3,3-3S11.7,14,10,14z" fill="#2A4D3A"/>
  <text x="40" y="28" class="swan-font">swan</text>
  <text x="40" y="42" class="botanicals-font">Botanicals</text>
</svg>